<?xml version="1.0" encoding="UTF-8" standalone="no" ?>
<!DOCTYPE svg PUBLIC "-//W3C//DTD SVG 1.1//EN" "http://www.w3.org/Graphics/SVG/1.1/DTD/svg11.dtd">
<svg xmlns="http://www.w3.org/2000/svg" xmlns:xlink="http://www.w3.org/1999/xlink" version="1.1" width="1024" height="1024" viewBox="0 0 1024 1024" xml:space="preserve">
<desc>Created with Fabric.js 3.1.0</desc>
<defs>
</defs>
<g transform="matrix(1 0 0 1 512 512)" id="background-logo"  >
<rect style="stroke: none; stroke-width: 1; stroke-dasharray: none; stroke-linecap: butt; stroke-dashoffset: 0; stroke-linejoin: miter; stroke-miterlimit: 4; fill: rgb(255,255,255); fill-rule: nonzero; opacity: 1;"  paint-order="stroke"  x="-512" y="-512" rx="0" ry="0" width="1024" height="1024" />
</g>
<g transform="matrix(1.5745007680491552 0 0 1.5745007680491552 540.5028554982466 344.9848077790269)" style="" id="logo-logo"  >
	<g transform="matrix(0.25 0 0 -0.25 -48.459187499999985 115.31187500000001)" id="path14"  >
<path style="stroke: none; stroke-width: 1; stroke-dasharray: none; stroke-linecap: butt; stroke-dashoffset: 0; stroke-linejoin: miter; stroke-miterlimit: 4; fill: rgb(115,115,115); fill-rule: evenodd; opacity: 1;"  paint-order="stroke"  transform=" translate(-403.2715, -156.89800000000002)" d="m 377.813 131.441 h 50.917 v 50.914 h -50.917 v -50.914" stroke-linecap="round" />
</g>
	<g transform="matrix(0.25 0 0 -0.25 -48.459187499999985 131.31187500000001)" id="path16"  >
<path style="stroke: none; stroke-width: 1; stroke-dasharray: none; stroke-linecap: butt; stroke-dashoffset: 0; stroke-linejoin: miter; stroke-miterlimit: 4; fill: rgb(115,115,115); fill-rule: evenodd; opacity: 1;"  paint-order="stroke"  transform=" translate(-403.2715, -92.1719)" d="M 377.813 66.7148 H 428.73 V 117.629 H 377.813 V 66.7148" stroke-linecap="round" />
</g>
	<g transform="matrix(0.25 0 0 -0.25 -65.45918749999998 131.31187500000001)" id="path18"  >
<path style="stroke: none; stroke-width: 1; stroke-dasharray: none; stroke-linecap: butt; stroke-dashoffset: 0; stroke-linejoin: miter; stroke-miterlimit: 4; fill: rgb(115,115,115); fill-rule: evenodd; opacity: 1;"  paint-order="stroke"  transform=" translate(-338.54499999999996, -92.1719)" d="M 313.09 66.7148 H 364 V 117.629 H 313.09 V 66.7148" stroke-linecap="round" />
</g>
	<g transform="matrix(0.25 0 0 -0.25 -65.45918749999998 115.31187500000001)" id="path20"  >
<path style="stroke: none; stroke-width: 1; stroke-dasharray: none; stroke-linecap: butt; stroke-dashoffset: 0; stroke-linejoin: miter; stroke-miterlimit: 4; fill: rgb(115,115,115); fill-rule: evenodd; opacity: 1;"  paint-order="stroke"  transform=" translate(-338.54499999999996, -156.89800000000002)" d="M 313.09 131.441 H 364 v 50.914 h -50.91 v -50.914" stroke-linecap="round" />
</g>
	<g transform="matrix(0.25 0 0 -0.25 87.54081250000002 -6.688124999999985)" id="path22"  >
<path style="stroke: none; stroke-width: 1; stroke-dasharray: none; stroke-linecap: butt; stroke-dashoffset: 0; stroke-linejoin: miter; stroke-miterlimit: 4; fill: rgb(115,115,115); fill-rule: evenodd; opacity: 1;"  paint-order="stroke"  transform=" translate(-939.3010012047012, -636.6659951845689)" d="M 959.594 668.078 L 919 668.063 c -6.137 0 -11.113 -4.977 -11.113 -11.118 l 0.015 -40.582 c 0 -6.14 4.981 -11.117 11.118 -11.109 l 40.589 0.008 c 6.133 0 11.11 4.976 11.106 11.113 l -0.012 40.594 c 0 6.14 -4.976 11.109 -11.109 11.109" stroke-linecap="round" />
</g>
	<g transform="matrix(0.25 0 0 -0.25 105.54081250000002 -34.688124999999985)" id="path24"  >
<path style="stroke: none; stroke-width: 1; stroke-dasharray: none; stroke-linecap: butt; stroke-dashoffset: 0; stroke-linejoin: miter; stroke-miterlimit: 4; fill: rgb(115,115,115); fill-rule: evenodd; opacity: 1;"  paint-order="stroke"  transform=" translate(-1014.3365000000001, -746.0270000000002)" d="m 1029.38 768.316 l -30.11 -0.011 c -3.993 0 -7.227 -3.239 -7.227 -7.227 l 0.012 -30.113 c 0 -3.996 3.234 -7.227 7.222 -7.227 l 30.113 0.004 c 4 0.008 7.24 3.242 7.24 7.235 l -0.02 30.113 c 0 3.988 -3.24 7.226 -7.23 7.226" stroke-linecap="round" />
</g>
	<g transform="matrix(0.25 0 0 -0.25 71.54081250000002 28.311875000000015)" id="path26"  >
<path style="stroke: none; stroke-width: 1; stroke-dasharray: none; stroke-linecap: butt; stroke-dashoffset: 0; stroke-linejoin: miter; stroke-miterlimit: 4; fill: rgb(115,115,115); fill-rule: evenodd; opacity: 1;"  paint-order="stroke"  transform=" translate(-877.1305000000001, -497.2985018782352)" d="m 891.969 519.277 l -29.692 -0.004 c -3.937 -0.007 -7.125 -3.195 -7.125 -7.132 l 0.004 -29.692 c 0.004 -3.933 3.196 -7.129 7.133 -7.129 l 29.691 0.012 c 3.942 0 7.129 3.191 7.129 7.129 l -0.011 29.695 c 0 3.934 -3.196 7.125 -7.129 7.121" stroke-linecap="round" />
</g>
	<g transform="matrix(0.25 0 0 -0.25 62.540812500000015 -120.68812499999999)" id="path28"  >
<path style="stroke: none; stroke-width: 1; stroke-dasharray: none; stroke-linecap: butt; stroke-dashoffset: 0; stroke-linejoin: miter; stroke-miterlimit: 4; fill: rgb(115,115,115); fill-rule: evenodd; opacity: 1;"  paint-order="stroke"  transform=" translate(-839.1970007370567, -1087.1849999943483)" d="m 801.273 1031.06 l 75.883 0.02 c 10.035 0 18.172 8.14 18.168 18.18 l -0.023 75.88 c 0 10.04 -8.145 18.18 -18.18 18.17 l -75.883 -0.02 c -10.035 0 -18.168 -8.14 -18.168 -18.18 l 0.024 -75.88 c 0.004 -10.05 8.14 -18.18 18.179 -18.17" stroke-linecap="round" />
</g>
	<g transform="matrix(0.25 0 0 -0.25 138.54081250000002 -42.688124999999985)" id="path30"  >
<path style="stroke: none; stroke-width: 1; stroke-dasharray: none; stroke-linecap: butt; stroke-dashoffset: 0; stroke-linejoin: miter; stroke-miterlimit: 4; fill: rgb(115,115,115); fill-rule: evenodd; opacity: 1;"  paint-order="stroke"  transform=" translate(-1138.99, -780.924)" d="m 1182.3 811.426 c 0 7.086 -5.75 12.828 -12.84 12.828 l -60.97 -0.024 c -7.09 0 -12.83 -5.75 -12.83 -12.832 l 0.02 -60.976 c 0 -7.082 5.75 -12.828 12.84 -12.828 l 60.97 0.019 c 7.09 0 12.83 5.754 12.83 12.844 l -0.02 60.969" stroke-linecap="round" />
</g>
	<g transform="matrix(0.25 0 0 -0.25 98.54081250000002 -69.68812499999999)" id="path32"  >
<path style="stroke: none; stroke-width: 1; stroke-dasharray: none; stroke-linecap: butt; stroke-dashoffset: 0; stroke-linejoin: miter; stroke-miterlimit: 4; fill: rgb(115,115,115); fill-rule: evenodd; opacity: 1;"  paint-order="stroke"  transform=" translate(-984.1065097688836, -884.5955000000001)" d="m 960.02 851.941 l 48.2 0.016 c 4.72 0 8.55 3.824 8.54 8.551 l -0.01 48.195 c -0.01 4.723 -3.83 8.547 -8.55 8.547 l -48.204 -0.02 c -4.719 0 -8.543 -3.828 -8.543 -8.546 l 0.02 -48.204 c 0.004 -4.714 3.824 -8.539 8.547 -8.539" stroke-linecap="round" />
</g>
	<g transform="matrix(0.25 0 0 -0.25 133.54081250000002 -82.68812499999999)" id="path34"  >
<path style="stroke: none; stroke-width: 1; stroke-dasharray: none; stroke-linecap: butt; stroke-dashoffset: 0; stroke-linejoin: miter; stroke-miterlimit: 4; fill: rgb(115,115,115); fill-rule: evenodd; opacity: 1;"  paint-order="stroke"  transform=" translate(-1118.494993302044, -937.1600000000001)" d="m 1138.22 904.961 c 6.9 0 12.48 5.598 12.48 12.488 l -0.01 39.438 c 0 6.89 -5.6 12.48 -12.49 12.48 l -39.43 -0.015 c -6.9 0 -12.49 -5.59 -12.48 -12.489 l 0.01 -39.429 c 0 -6.899 5.59 -12.481 12.49 -12.481 l 39.43 0.008" stroke-linecap="round" />
</g>
	<g transform="matrix(0.25 0 0 -0.25 104.54081250000002 -100.68812499999999)" id="path36"  >
<path style="stroke: none; stroke-width: 1; stroke-dasharray: none; stroke-linecap: butt; stroke-dashoffset: 0; stroke-linejoin: miter; stroke-miterlimit: 4; fill: rgb(115,115,115); fill-rule: evenodd; opacity: 1;"  paint-order="stroke"  transform=" translate(-1008.4139999999999, -1002.971)" d="m 992.703 979.902 l 31.437 0.008 c 4.05 0.004 7.34 3.289 7.34 7.348 l -0.01 31.432 c -0.01 4.06 -3.29 7.35 -7.34 7.35 l -31.435 -0.02 c -4.062 0 -7.347 -3.29 -7.347 -7.34 l 0.011 -31.434 c 0 -4.055 3.289 -7.344 7.344 -7.344" stroke-linecap="round" />
</g>
	<g transform="matrix(0.25 0 0 -0.25 62.540812500000015 -82.68812499999999)" id="path38"  >
<path style="stroke: none; stroke-width: 1; stroke-dasharray: none; stroke-linecap: butt; stroke-dashoffset: 0; stroke-linejoin: miter; stroke-miterlimit: 4; fill: rgb(115,115,115); fill-rule: evenodd; opacity: 1;"  paint-order="stroke"  transform=" translate(-843.2149999999999, -937.369)" d="M 864.754 968.996 L 821.66 968.98 c -5.566 -0.007 -10.07 -4.511 -10.07 -10.074 l 0.015 -43.09 c 0 -5.562 4.512 -10.074 10.075 -10.074 l 43.097 0.016 c 5.559 0 10.063 4.512 10.063 10.074 l -0.012 43.102 c -0.004 5.558 -4.508 10.062 -10.074 10.062" stroke-linecap="round" />
</g>
	<g transform="matrix(0.25 0 0 -0.25 14.540812500000015 -145.68812499999999)" id="path40"  >
<path style="stroke: none; stroke-width: 1; stroke-dasharray: none; stroke-linecap: butt; stroke-dashoffset: 0; stroke-linejoin: miter; stroke-miterlimit: 4; fill: rgb(115,115,115); fill-rule: evenodd; opacity: 1;"  paint-order="stroke"  transform=" translate(-650.0565, -1182.105)" d="m 634.352 1159.04 l 31.429 0.01 c 4.055 0 7.34 3.29 7.34 7.34 l -0.004 31.44 c -0.008 4.06 -3.293 7.34 -7.347 7.34 l -31.43 -0.01 c -4.063 0 -7.348 -3.29 -7.348 -7.35 l 0.012 -31.43 c 0 -4.05 3.293 -7.34 7.348 -7.34" stroke-linecap="round" />
</g>
	<g transform="matrix(0.25 0 0 -0.25 -38.459187499999985 23.311875000000015)" id="path42"  >
<path style="stroke: none; stroke-width: 1; stroke-dasharray: none; stroke-linecap: butt; stroke-dashoffset: 0; stroke-linejoin: miter; stroke-miterlimit: 4; fill: rgb(115,115,115); fill-rule: evenodd; opacity: 1;"  paint-order="stroke"  transform=" translate(-443.65649999999994, -512.5699999999999)" d="m 822.867 642.422 v 0.246 l -20.344 -0.004 c -5.625 0 -10.187 4.559 -10.191 10.184 l -0.012 42.441 c 0 5.625 4.559 10.184 10.184 10.188 l 20.008 0.007 v 0.02 l 49.554 0.019 c 8.426 0 15.247 6.829 15.247 15.25 l -0.036 96.622 c 0 8.425 -6.832 15.25 -15.246 15.246 l -86.758 -0.028 c -29.921 52.137 -75.882 93.879 -131.14 118.539 l -0.024 61.058 c -0.004 7.14 -5.796 12.93 -12.933 12.93 l -72.934 -0.03 c -7.133 0 -12.922 -5.79 -12.922 -12.93 l 0.012 -36.965 h -0.016 l 0.004 -30.699 c 0 -4.051 -3.285 -7.344 -7.347 -7.348 l -30.621 -0.008 c -4.059 0 -7.348 3.285 -7.352 7.348 v 31.226 H 0 V 101.219 l 164.703 241.062 v 483.992 h 329.66 c 88.075 0 159.477 -71.402 159.477 -159.476 c 0 -88.086 -71.402 -159.488 -181.465 -159.488 H 346.973 L 0 0 H 89.1758 L 370.91 411.605 L 652.641 0 H 867.695 L 615.492 368.457 c 119.656 33.645 207.375 143.563 207.375 273.965 z m -120.254 126.633 l 30.621 0.011 c 4.063 0 7.356 -3.293 7.356 -7.347 l 0.012 -30.621 c 0 -4.055 -3.293 -7.348 -7.356 -7.356 l -30.617 -0.004 c -4.059 0 -7.352 3.289 -7.352 7.348 l -0.011 30.617 c 0 4.059 3.293 7.352 7.347 7.352 z m -52.547 80.672 l -0.007 30.617 c 0 4.058 3.289 7.351 7.347 7.351 l 30.617 0.012 c 4.063 0 7.352 -3.293 7.352 -7.348 l 0.016 -30.617 c 0 -4.062 -3.289 -7.351 -7.352 -7.351 l -30.621 -0.012 c -4.059 0 -7.348 3.293 -7.352 7.348" stroke-linecap="round" />
</g>
</g>
<g transform="matrix(1.5745007680491552 0 0 1.5745007680491552 349.5096486386705 668.1486073041339)"  >
<path style="stroke: none; stroke-width: 0; stroke-dasharray: none; stroke-linecap: butt; stroke-dashoffset: 0; stroke-linejoin: miter; stroke-miterlimit: 4; fill: rgb(94,178,58); fill-rule: nonzero; opacity: 1;"  paint-order="stroke"  transform=" translate(-138.66000000000003, 42.01)" d="M 21.74 0 L 2.4 0 L 2.4 -84.02 L 21.74 -84.02 L 41.13 -84.02 Q 46.52 -84.02 51.21 -81.97 Q 55.9 -79.92 59.38 -76.44 Q 62.87 -72.95 64.92 -68.26 Q 66.97 -63.57 66.97 -58.18 L 66.97 -58.18 Q 66.97 -53.61 65.48 -49.48 Q 63.98 -45.35 61.35 -42.01 L 61.35 -42.01 Q 63.98 -38.67 65.48 -34.51 Q 66.97 -30.35 66.97 -25.78 L 66.97 -25.78 L 66.97 0 L 47.64 0 L 47.64 -25.78 Q 47.64 -28.54 45.79 -30.41 Q 43.95 -32.29 41.13 -32.29 L 41.13 -32.29 L 21.74 -32.29 L 21.74 0 Z M 21.74 -64.57 L 21.74 -51.74 L 41.13 -51.74 Q 43.89 -51.74 45.76 -53.58 Q 47.64 -55.43 47.64 -58.18 L 47.64 -58.18 Q 47.64 -60.82 45.79 -62.7 Q 43.95 -64.57 41.13 -64.57 L 41.13 -64.57 L 21.74 -64.57 Z M 71.72 -25.78 L 71.72 -25.78 L 71.72 -58.18 Q 71.72 -63.57 73.77 -68.26 Q 75.82 -72.95 79.28 -76.44 Q 82.73 -79.92 87.42 -81.97 Q 92.11 -84.02 97.5 -84.02 L 97.5 -84.02 L 136.29 -84.02 L 136.29 -64.57 L 97.5 -64.57 Q 94.75 -64.57 92.9 -62.7 Q 91.05 -60.82 91.05 -58.18 L 91.05 -58.18 L 91.05 -51.74 L 136.29 -51.74 L 136.29 -32.29 L 91.05 -32.29 L 91.05 -25.78 Q 91.05 -23.14 92.9 -21.24 Q 94.75 -19.34 97.5 -19.34 L 97.5 -19.34 L 136.29 -19.34 L 136.29 0 L 97.5 0 Q 92.11 0 87.42 -2.05 Q 82.73 -4.1 79.28 -7.56 Q 75.82 -11.02 73.77 -15.7 Q 71.72 -20.39 71.72 -25.78 Z M 160.37 0 L 141.04 0 L 141.04 -84.02 L 160.37 -84.02 L 179.77 -84.02 Q 185.16 -84.02 189.84 -81.97 Q 194.53 -79.92 198.02 -76.44 Q 201.5 -72.95 203.55 -68.26 Q 205.61 -63.57 205.61 -58.18 L 205.61 -58.18 L 205.61 -25.78 Q 205.61 -20.39 203.55 -15.7 Q 201.5 -11.02 198.02 -7.56 Q 194.53 -4.1 189.87 -2.05 Q 185.21 0 179.77 0 L 179.77 0 L 160.37 0 Z M 160.37 -64.57 L 160.37 -19.34 L 179.77 -19.34 Q 182.52 -19.34 184.39 -21.24 Q 186.27 -23.14 186.27 -25.78 L 186.27 -25.78 L 186.27 -58.18 Q 186.27 -60.82 184.42 -62.7 Q 182.58 -64.57 179.77 -64.57 L 179.77 -64.57 L 160.37 -64.57 Z M 210.35 -25.78 L 210.35 -25.78 L 210.35 -58.18 Q 210.35 -63.57 212.4 -68.26 Q 214.45 -72.95 217.91 -76.44 Q 221.37 -79.92 226.05 -81.97 Q 230.74 -84.02 236.13 -84.02 L 236.13 -84.02 L 249.08 -84.02 Q 254.47 -84.02 259.16 -81.97 Q 263.85 -79.92 267.33 -76.44 Q 270.82 -72.95 272.87 -68.26 Q 274.92 -63.57 274.92 -58.18 L 274.92 -58.18 L 274.92 -25.78 Q 274.92 -20.39 272.87 -15.7 Q 270.82 -11.02 267.33 -7.56 Q 263.85 -4.1 259.19 -2.05 Q 254.53 0 249.08 0 L 249.08 0 L 236.13 0 Q 230.74 0 226.05 -2.05 Q 221.37 -4.1 217.91 -7.56 Q 214.45 -11.02 212.4 -15.7 Q 210.35 -20.39 210.35 -25.78 Z M 229.69 -58.18 L 229.69 -25.78 Q 229.69 -23.14 231.53 -21.24 Q 233.38 -19.34 236.13 -19.34 L 236.13 -19.34 L 249.08 -19.34 Q 251.84 -19.34 253.71 -21.24 Q 255.59 -23.14 255.59 -25.78 L 255.59 -25.78 L 255.59 -58.18 Q 255.59 -60.82 253.74 -62.7 Q 251.89 -64.57 249.08 -64.57 L 249.08 -64.57 L 236.13 -64.57 Q 233.38 -64.57 231.53 -62.7 Q 229.69 -60.82 229.69 -58.18 L 229.69 -58.18 Z" stroke-linecap="round" />
</g>
<g transform="matrix(1.5745007680491552 0 0 1.5745007680491552 606.3991565051533 631.0999857777076)"  >
<path style="stroke: none; stroke-width: 0; stroke-dasharray: none; stroke-linecap: butt; stroke-dashoffset: 0; stroke-linejoin: miter; stroke-miterlimit: 4; fill: rgb(115,115,115); fill-rule: nonzero; opacity: 1;"  paint-order="stroke"  transform=" translate(-16.474999999999998, 19.955)" d="M 10.33 0 L 1.14 0 L 1.14 -39.91 L 10.33 -39.91 L 19.54 -39.91 Q 22.1 -39.91 24.33 -38.94 Q 26.55 -37.96 28.21 -36.31 Q 29.86 -34.65 30.84 -32.42 Q 31.81 -30.2 31.81 -27.64 L 31.81 -27.64 Q 31.81 -25.47 31.1 -23.5 Q 30.39 -21.54 29.14 -19.96 L 29.14 -19.96 Q 30.39 -18.37 31.1 -16.39 Q 31.81 -14.42 31.81 -12.25 L 31.81 -12.25 L 31.81 0 L 22.63 0 L 22.63 -12.25 Q 22.63 -13.55 21.75 -14.44 Q 20.87 -15.34 19.54 -15.34 L 19.54 -15.34 L 10.33 -15.34 L 10.33 0 Z M 10.33 -30.67 L 10.33 -24.58 L 19.54 -24.58 Q 20.85 -24.58 21.74 -25.45 Q 22.63 -26.33 22.63 -27.64 L 22.63 -27.64 Q 22.63 -28.89 21.75 -29.78 Q 20.87 -30.67 19.54 -30.67 L 19.54 -30.67 L 10.33 -30.67 Z" stroke-linecap="round" />
</g>
<g transform="matrix(1.5745007680491552 0 0 1.5745007680491552 640.4447539332414 694.5487397052833)"  >
<path style="stroke: none; stroke-width: 0; stroke-dasharray: none; stroke-linecap: butt; stroke-dashoffset: 0; stroke-linejoin: miter; stroke-miterlimit: 4; fill: rgb(115,115,115); fill-rule: nonzero; opacity: 1;"  paint-order="stroke"  transform=" translate(-16.474999999999998, 19.955)" d="M 11.63 0 L 1.14 0 L 10.33 -19.96 L 1.14 -39.91 L 11.63 -39.91 L 16.48 -27.64 L 21.32 -39.91 L 31.81 -39.91 L 22.63 -19.96 L 31.81 0 L 21.32 0 L 16.48 -12.25 L 11.63 0 Z" stroke-linecap="round" />
</g>
<g transform="matrix(1.5745007680491552 0 0 1.5745007680491552 739.4864919058612 643.4802304465028)"  >
<path style="stroke: none; stroke-width: 0; stroke-dasharray: none; stroke-linecap: butt; stroke-dashoffset: 0; stroke-linejoin: miter; stroke-miterlimit: 4; fill: rgb(94,178,58); fill-rule: nonzero; opacity: 1;"  paint-order="stroke"  transform=" translate(-65.38999999999999, 10.155)" d="M 0.58 -6.23 L 0.58 -6.23 L 0.58 -14.06 Q 0.58 -15.36 1.08 -16.5 Q 1.57 -17.63 2.41 -18.47 Q 3.24 -19.31 4.38 -19.81 Q 5.51 -20.31 6.81 -20.31 L 6.81 -20.31 L 16.19 -20.31 L 16.19 -15.6 L 6.81 -15.6 Q 6.15 -15.6 5.7 -15.15 Q 5.25 -14.7 5.25 -14.06 L 5.25 -14.06 L 5.25 -12.5 L 16.19 -12.5 L 16.19 -7.8 L 5.25 -7.8 L 5.25 -6.23 Q 5.25 -5.59 5.7 -5.13 Q 6.15 -4.67 6.81 -4.67 L 6.81 -4.67 L 16.19 -4.67 L 16.19 0 L 6.81 0 Q 5.51 0 4.38 -0.5 Q 3.24 -0.99 2.41 -1.83 Q 1.57 -2.66 1.08 -3.79 Q 0.58 -4.93 0.58 -6.23 Z M 22 0 L 17.33 0 L 17.33 -14.06 Q 17.33 -15.36 17.83 -16.5 Q 18.32 -17.63 19.16 -18.47 Q 19.99 -19.31 21.13 -19.81 Q 22.26 -20.31 23.56 -20.31 L 23.56 -20.31 L 26.69 -20.31 Q 27.99 -20.31 29.13 -19.81 Q 30.26 -19.31 31.1 -18.47 Q 31.95 -17.63 32.44 -16.5 Q 32.94 -15.36 32.94 -14.06 L 32.94 -14.06 L 32.94 0 L 28.26 0 L 28.26 -14.06 Q 28.26 -14.7 27.82 -15.17 Q 27.37 -15.63 26.69 -15.63 L 26.69 -15.63 L 23.56 -15.63 Q 22.9 -15.63 22.45 -15.17 Q 22 -14.7 22 -14.06 L 22 -14.06 L 22 0 Z M 34.08 -6.23 L 34.08 -6.23 L 34.08 -14.06 Q 34.08 -15.36 34.58 -16.5 Q 35.07 -17.63 35.91 -18.47 Q 36.75 -19.31 37.88 -19.81 Q 39.01 -20.31 40.31 -20.31 L 40.31 -20.31 L 43.44 -20.31 Q 44.75 -20.31 45.88 -19.81 Q 47.01 -19.31 47.85 -18.47 Q 48.7 -17.63 49.19 -16.5 Q 49.69 -15.36 49.69 -14.06 L 49.69 -14.06 L 49.69 -6.23 Q 49.69 -4.93 49.19 -3.79 Q 48.7 -2.66 47.85 -1.83 Q 47.01 -0.99 45.89 -0.5 Q 44.76 0 43.44 0 L 43.44 0 L 40.31 0 Q 39.01 0 37.88 -0.5 Q 36.75 -0.99 35.91 -1.83 Q 35.07 -2.66 34.58 -3.79 Q 34.08 -4.93 34.08 -6.23 Z M 38.76 -14.06 L 38.76 -6.23 Q 38.76 -5.59 39.2 -5.13 Q 39.65 -4.67 40.31 -4.67 L 40.31 -4.67 L 43.44 -4.67 Q 44.11 -4.67 44.56 -5.13 Q 45.02 -5.59 45.02 -6.23 L 45.02 -6.23 L 45.02 -14.06 Q 45.02 -14.7 44.57 -15.15 Q 44.12 -15.6 43.44 -15.6 L 43.44 -15.6 L 40.31 -15.6 Q 39.65 -15.6 39.2 -15.15 Q 38.76 -14.7 38.76 -14.06 L 38.76 -14.06 Z M 54.81 0 L 49.39 -20.31 L 54.06 -20.31 L 57.19 -8.64 L 60.32 -20.31 L 65 -20.31 L 59.57 0 L 59.52 0 L 54.87 0 L 54.81 0 Z M 67.63 0 L 62.96 0 L 68.38 -20.31 L 68.44 -20.31 L 73.08 -20.31 L 73.14 -20.31 L 78.56 0 L 73.89 0 L 70.76 -11.65 L 67.63 0 Z M 81.51 -15.6 L 76.8 -15.6 L 76.8 -20.31 L 90.87 -20.31 L 90.87 -15.6 L 86.16 -15.6 L 86.16 0 L 81.51 0 L 81.51 -15.6 Z M 96.7 0 L 92.03 0 L 92.03 -20.31 L 96.7 -20.31 L 96.7 0 Z M 97.85 -6.23 L 97.85 -6.23 L 97.85 -14.06 Q 97.85 -15.36 98.34 -16.5 Q 98.84 -17.63 99.67 -18.47 Q 100.51 -19.31 101.64 -19.81 Q 102.77 -20.31 104.08 -20.31 L 104.08 -20.31 L 107.21 -20.31 Q 108.51 -20.31 109.64 -19.81 Q 110.77 -19.31 111.62 -18.47 Q 112.46 -17.63 112.96 -16.5 Q 113.45 -15.36 113.45 -14.06 L 113.45 -14.06 L 113.45 -6.23 Q 113.45 -4.93 112.96 -3.79 Q 112.46 -2.66 111.62 -1.83 Q 110.77 -0.99 109.65 -0.5 Q 108.52 0 107.21 0 L 107.21 0 L 104.08 0 Q 102.77 0 101.64 -0.5 Q 100.51 -0.99 99.67 -1.83 Q 98.84 -2.66 98.34 -3.79 Q 97.85 -4.93 97.85 -6.23 Z M 102.52 -14.06 L 102.52 -6.23 Q 102.52 -5.59 102.97 -5.13 Q 103.41 -4.67 104.08 -4.67 L 104.08 -4.67 L 107.21 -4.67 Q 107.87 -4.67 108.33 -5.13 Q 108.78 -5.59 108.78 -6.23 L 108.78 -6.23 L 108.78 -14.06 Q 108.78 -14.7 108.33 -15.15 Q 107.89 -15.6 107.21 -15.6 L 107.21 -15.6 L 104.08 -15.6 Q 103.41 -15.6 102.97 -15.15 Q 102.52 -14.7 102.52 -14.06 L 102.52 -14.06 Z M 119.27 0 L 114.6 0 L 114.6 -14.06 Q 114.6 -15.36 115.09 -16.5 Q 115.59 -17.63 116.42 -18.47 Q 117.26 -19.31 118.39 -19.81 Q 119.53 -20.31 120.83 -20.31 L 120.83 -20.31 L 123.96 -20.31 Q 125.26 -20.31 126.39 -19.81 Q 127.53 -19.31 128.37 -18.47 Q 129.21 -17.63 129.71 -16.5 Q 130.2 -15.36 130.2 -14.06 L 130.2 -14.06 L 130.2 0 L 125.53 0 L 125.53 -14.06 Q 125.53 -14.7 125.08 -15.17 Q 124.64 -15.63 123.96 -15.63 L 123.96 -15.63 L 120.83 -15.63 Q 120.16 -15.63 119.72 -15.17 Q 119.27 -14.7 119.27 -14.06 L 119.27 -14.06 L 119.27 0 Z" stroke-linecap="round" />
</g>
<g transform="matrix(1.5745007680491552 0 0 1.5745007680491552 731.7488561267505 708.4765149576779)"  >
<path style="stroke: none; stroke-width: 0; stroke-dasharray: none; stroke-linecap: butt; stroke-dashoffset: 0; stroke-linejoin: miter; stroke-miterlimit: 4; fill: rgb(94,178,58); fill-rule: nonzero; opacity: 1;"  paint-order="stroke"  transform=" translate(-41.12, 10.155)" d="M 5.25 0 L 0.58 0 L 0.58 -20.31 L 5.25 -20.31 L 9.94 -20.31 Q 11.24 -20.31 12.38 -19.81 Q 13.51 -19.31 14.35 -18.47 Q 15.19 -17.63 15.69 -16.5 Q 16.19 -15.36 16.19 -14.06 L 16.19 -14.06 Q 16.19 -12.76 15.69 -11.63 Q 15.19 -10.49 14.35 -9.64 Q 13.51 -8.79 12.38 -8.3 Q 11.26 -7.8 9.94 -7.8 L 9.94 -7.8 L 5.25 -7.8 L 5.25 0 Z M 5.25 -15.6 L 5.25 -12.5 L 9.94 -12.5 Q 10.61 -12.5 11.06 -12.95 Q 11.51 -13.4 11.51 -14.06 L 11.51 -14.06 Q 11.51 -14.7 11.07 -15.15 Q 10.62 -15.6 9.94 -15.6 L 9.94 -15.6 L 5.25 -15.6 Z M 17.33 -6.23 L 17.33 -6.23 L 17.33 -14.06 Q 17.33 -15.36 17.83 -16.5 Q 18.32 -17.63 19.16 -18.47 Q 19.99 -19.31 21.13 -19.81 Q 22.26 -20.31 23.56 -20.31 L 23.56 -20.31 L 32.94 -20.31 L 32.94 -15.6 L 23.56 -15.6 Q 22.9 -15.6 22.45 -15.15 Q 22 -14.7 22 -14.06 L 22 -14.06 L 22 -12.5 L 32.94 -12.5 L 32.94 -7.8 L 22 -7.8 L 22 -6.23 Q 22 -5.59 22.45 -5.13 Q 22.9 -4.67 23.56 -4.67 L 23.56 -4.67 L 32.94 -4.67 L 32.94 0 L 23.56 0 Q 22.26 0 21.13 -0.5 Q 19.99 -0.99 19.16 -1.83 Q 18.32 -2.66 17.83 -3.79 Q 17.33 -4.93 17.33 -6.23 Z M 38.76 0 L 34.08 0 L 34.08 -20.31 L 38.76 -20.31 L 43.44 -20.31 Q 44.75 -20.31 45.88 -19.81 Q 47.01 -19.31 47.85 -18.47 Q 48.7 -17.63 49.19 -16.5 Q 49.69 -15.36 49.69 -14.06 L 49.69 -14.06 Q 49.69 -12.96 49.33 -11.96 Q 48.97 -10.96 48.33 -10.15 L 48.33 -10.15 Q 48.97 -9.35 49.33 -8.34 Q 49.69 -7.33 49.69 -6.23 L 49.69 -6.23 L 49.69 0 L 45.02 0 L 45.02 -6.23 Q 45.02 -6.9 44.57 -7.35 Q 44.12 -7.8 43.44 -7.8 L 43.44 -7.8 L 38.76 -7.8 L 38.76 0 Z M 38.76 -15.6 L 38.76 -12.5 L 43.44 -12.5 Q 44.11 -12.5 44.56 -12.95 Q 45.02 -13.4 45.02 -14.06 L 45.02 -14.06 Q 45.02 -14.7 44.57 -15.15 Q 44.12 -15.6 43.44 -15.6 L 43.44 -15.6 L 38.76 -15.6 Z M 55.54 -15.6 L 50.83 -15.6 L 50.83 -20.31 L 64.9 -20.31 L 64.9 -15.6 L 60.19 -15.6 L 60.19 0 L 55.54 0 L 55.54 -15.6 Z M 75.42 0 L 66.06 0 L 66.06 -4.67 L 75.42 -4.67 Q 76.08 -4.7 76.54 -5.15 Q 76.99 -5.59 76.99 -6.23 L 76.99 -6.23 Q 76.99 -6.9 76.54 -7.35 Q 76.1 -7.8 75.42 -7.8 L 75.42 -7.8 L 72.29 -7.8 Q 70.98 -7.8 69.85 -8.3 Q 68.72 -8.79 67.88 -9.64 Q 67.05 -10.49 66.55 -11.63 Q 66.06 -12.76 66.06 -14.06 L 66.06 -14.06 Q 66.06 -15.36 66.55 -16.5 Q 67.05 -17.63 67.88 -18.47 Q 68.72 -19.31 69.85 -19.81 Q 70.98 -20.31 72.29 -20.31 L 72.29 -20.31 L 78.53 -20.31 L 78.53 -15.6 L 72.29 -15.6 Q 71.62 -15.6 71.18 -15.15 Q 70.73 -14.7 70.73 -14.06 L 70.73 -14.06 Q 70.73 -13.4 71.18 -12.95 Q 71.62 -12.5 72.29 -12.5 L 72.29 -12.5 L 75.42 -12.5 Q 76.72 -12.5 77.85 -12.01 Q 78.99 -11.51 79.83 -10.66 Q 80.67 -9.8 81.17 -8.67 Q 81.66 -7.53 81.66 -6.23 L 81.66 -6.23 Q 81.66 -4.93 81.17 -3.79 Q 80.67 -2.66 79.83 -1.83 Q 78.99 -0.99 77.86 -0.5 Q 76.73 0 75.42 0 L 75.42 0 Z" stroke-linecap="round" />
</g>
<g transform="matrix(1.5745007680491552 0 0 1.5745007680491552 844.7183385017698 708.7357123803353)"  >
<path style="stroke: none; stroke-width: 0; stroke-dasharray: none; stroke-linecap: butt; stroke-dashoffset: 0; stroke-linejoin: miter; stroke-miterlimit: 4; fill: rgb(115,115,115); fill-rule: nonzero; opacity: 1;"  paint-order="stroke"  transform=" translate(-20.474999999999998, 10.155)" d="M 0.58 -6.23 L 0.58 -6.23 L 0.58 -20.31 L 5.28 -20.31 L 5.28 -6.23 Q 5.28 -5.59 5.73 -5.13 Q 6.17 -4.67 6.81 -4.67 L 6.81 -4.67 L 11.51 -4.67 L 11.51 0 L 6.81 0 Q 5.51 0 4.38 -0.5 Q 3.24 -0.99 2.41 -1.83 Q 1.57 -2.66 1.08 -3.79 Q 0.58 -4.93 0.58 -6.23 Z M 12.67 -6.23 L 12.67 -6.23 L 12.67 -20.31 L 17.37 -20.31 L 17.37 -6.23 Q 17.37 -5.59 17.82 -5.13 Q 18.27 -4.67 18.9 -4.67 L 18.9 -4.67 L 23.6 -4.67 L 23.6 0 L 18.9 0 Q 17.6 0 16.47 -0.5 Q 15.34 -0.99 14.5 -1.83 Q 13.66 -2.66 13.17 -3.79 Q 12.67 -4.93 12.67 -6.23 Z M 24.77 -6.23 L 24.77 -6.23 L 24.77 -14.06 Q 24.77 -15.36 25.26 -16.5 Q 25.76 -17.63 26.59 -18.47 Q 27.43 -19.31 28.56 -19.81 Q 29.69 -20.31 31 -20.31 L 31 -20.31 L 34.13 -20.31 Q 35.43 -20.31 36.56 -19.81 Q 37.69 -19.31 38.54 -18.47 Q 39.38 -17.63 39.88 -16.5 Q 40.37 -15.36 40.37 -14.06 L 40.37 -14.06 L 35.7 -14.06 Q 35.7 -14.7 35.25 -15.15 Q 34.81 -15.6 34.13 -15.6 L 34.13 -15.6 L 31 -15.6 Q 30.33 -15.6 29.89 -15.15 Q 29.44 -14.7 29.44 -14.06 L 29.44 -14.06 L 29.44 -6.23 Q 29.44 -5.59 29.89 -5.13 Q 30.33 -4.67 31 -4.67 L 31 -4.67 L 34.13 -4.67 Q 34.79 -4.67 35.24 -5.13 Q 35.7 -5.59 35.7 -6.23 L 35.7 -6.23 L 40.37 -6.23 Q 40.37 -4.93 39.88 -3.79 Q 39.38 -2.66 38.54 -1.83 Q 37.69 -0.99 36.57 -0.5 Q 35.44 0 34.13 0 L 34.13 0 L 31 0 Q 29.69 0 28.56 -0.5 Q 27.43 -0.99 26.59 -1.83 Q 25.76 -2.66 25.26 -3.79 Q 24.77 -4.93 24.77 -6.23 Z" stroke-linecap="round" />
</g>
</svg>